# xmcd
#
# Track frame offsets: 
#        150
#        15213
#        30544
#        45352
#        57844
#        71053
#        72341
#        86367
#        102008
#        115610
#        129141
#        143078
#        157479
#        172406
#        187538
#        200686
#        214185
#        228979
#        242316
#
# Disc length: 3384 seconds
#
# Revision: 0
# Processed by: cddbd v1.5.1PL0 Copyright (c) Steve Scherf et al.
# Submitted via: ExactAudioCopy v0.95a5
#
DISCID=f50d3613
DTITLE=Ida Cox - Complete Recorded Works - Volume. 5 (1939 - 1940)
DYEAR=2000
DGENRE=Blues
TTITLE0=Deep Sea Blues (Take 1)
TTITLE1=Deep Sea Blues (Take 2)
TTITLE2=Death Letter Blues (Take 1)
TTITLE3=Death Letter Blues (Take 4)
TTITLE4=One Hour Mama (Take 4)
TTITLE5=One Hour Mama (Breakdown) Take 5
TTITLE6=One Hour Mama (Take 6)
TTITLE7=Four Day Creep
TTITLE8=Pink Slip Blues
TTITLE9=Hard Times Blues
TTITLE10=Take Him Off My Mind
TTITLE11=Last Mile Blues (Take 1)
TTITLE12=Last Mile Blues (Take 2)
TTITLE13=I Ain't Gonna Let Nobody Break My Heart
TTITLE14=I Can't Quit That Man (Take 1)
TTITLE15=I Can't Quit That Man (Take 2)
TTITLE16=I Can't Quit That Man (Take 3)
TTITLE17=You Got To Swing And Sway (Take 1)
TTITLE18=You Got To Swing And Sway (Take 2)
EXTD=
EXTT0=
EXTT1=
EXTT2=
EXTT3=
EXTT4=
EXTT5=
EXTT6=
EXTT7=
EXTT8=
EXTT9=
EXTT10=
EXTT11=
EXTT12=
EXTT13=
EXTT14=
EXTT15=
EXTT16=
EXTT17=
EXTT18=
PLAYORDER=
